<?xml version="1.0" encoding="utf-8"?>
<!-- Generator: Adobe Illustrator 22.0.1, SVG Export Plug-In . SVG Version: 6.00 Build 0)  -->
<svg version="1.1" id="图层_1" xmlns="http://www.w3.org/2000/svg" xmlns:xlink="http://www.w3.org/1999/xlink" x="0px" y="0px"
	 viewBox="0 0 371 199" style="enable-background:new 0 0 371 199;" xml:space="preserve">
<style type="text/css">
	.st0{fill:#F0B90B;}
</style>
<g>
	<path class="st0" d="M99.9,119.1c0-12.8,0-25.4,0-38.2c1.7,0,3.3,0,4.9,0c5.1,0.1,10.2,0,15.2,0.3c1.9,0.1,3.9,0.8,5.5,1.7
		c5.8,3.2,6.3,11.2,1.1,15.4c-0.3,0.2-0.6,0.5-1.1,0.9c0.7,0.4,1.2,0.6,1.7,0.9c3.5,1.9,5.1,4.7,5,8.7c-0.1,3.9-1.7,6.8-5.2,8.5
		c-1.9,0.9-4,1.3-6.1,1.8c-0.9,0.2-1.9,0.1-2.8,0.1C112.1,119.1,106.1,119.1,99.9,119.1z M108.1,111.4c4.2,0,8.3,0.2,12.3-0.1
		c2.3-0.2,3.4-1.8,3.4-3.8c0-1.9-1.2-3.6-3.3-3.7c-4.1-0.2-8.2-0.1-12.4-0.1C108.1,106.2,108.1,108.8,108.1,111.4z M108.1,96.4
		c2.6,0,5,0,7.4,0c0.9,0,1.9-0.1,2.8-0.3c2-0.4,3.2-1.7,3.3-3.5c0.1-1.9-0.9-3.6-2.9-3.7c-3.5-0.3-7-0.1-10.6-0.1
		C108.1,91.2,108.1,93.6,108.1,96.4z"/>
	<path class="st0" d="M255.7,119c-3,0-5.6,0-8.4,0c0-0.7-0.1-1.3-0.1-1.9c0-11.4,0-22.7,0-34.1c0-1.7,0.5-2,2.1-2.1
		c4.2-0.5,6.9,0.9,9.3,4.5c4.3,6.3,9.2,12.2,14.1,18.7c0-7.9,0-15.4,0-23.1c2.7,0,5.2,0,7.7,0.1c0.3,0,0.8,0.7,0.9,1.1
		c0.1,0.9,0,1.8,0,2.6c0,10.7,0,21.3,0,32c0,0.7,0,1.5,0,2.4c-2.4,0-4.5,0.1-6.6-0.1c-0.6,0-1.3-0.7-1.7-1.3c-5.3-7-10.7-14-16-21
		c-0.3-0.4-0.6-0.8-1.3-1.6C255.7,103.4,255.7,111.2,255.7,119z"/>
	<path class="st0" d="M169.3,95.8c0,7.7,0,15.4,0,23.2c-2.9,0-5.5,0-8.3,0c0-12.6,0-25.2,0-38c2.5,0,4.9-0.1,7.3,0.1
		c0.6,0,1.2,1,1.7,1.6c4.9,6.4,9.7,12.8,14.6,19.2c0.5,0.6,1,1.2,1.8,1.7c0-7.4,0-14.8,0-22.4c2.9,0,5.5,0,8.3,0c0,12.6,0,25.2,0,38
		c-2.2,0-4.4,0.1-6.6-0.1c-0.6-0.1-1.3-0.9-1.7-1.5c-5.2-6.8-10.3-13.6-15.5-20.4c-0.4-0.5-0.8-1-1.2-1.6
		C169.6,95.7,169.4,95.7,169.3,95.8z"/>
	<path class="st0" d="M339.6,103.6c0,2.7,0,5.2,0,7.8c6.7,0,13.5,0,20.4,0c0,2.6,0,5,0,7.6c-0.5,0-1.1,0.1-1.6,0.1
		c-8.5,0-16.9,0-25.4,0c-1.5,0-1.9-0.4-1.9-1.9c0.1-11.5,0-23,0-34.4c0-1.1-0.1-2,1.5-1.9c8.8,0.1,17.6,0,26.4,0
		c0.2,0,0.5,0.1,0.9,0.1c0,2.4,0,4.8,0,7.4c-6.7,0-13.3,0-20.1,0c0,2.6,0,5,0,7.6c5.8,0,11.7,0,17.6,0c0,2.6,0,5,0,7.6
		C351.5,103.6,345.7,103.6,339.6,103.6z"/>
	<path class="st0" d="M200.8,119.1c1.9-4.5,3.7-8.7,5.5-12.9c3.4-8,6.8-16,10.2-24.1c0.5-1.1,1-1.5,2.2-1.5c6.4-0.1,6.3-0.1,8.8,5.8
		c4.3,10.2,8.7,20.4,13,30.7c0.2,0.6,0.4,1.1,0.8,2c-2.9,0-5.5,0.1-8.1-0.1c-0.4,0-1-0.7-1.2-1.2c-0.9-2-1.6-4.1-2.6-6.1
		c-0.3-0.6-1.1-1.2-1.8-1.2c-4.5-0.1-8.9-0.1-13.4,0c-0.6,0-1.5,0.6-1.8,1.2c-0.9,1.9-1.7,3.9-2.5,5.9c-0.4,1-0.9,1.5-2.1,1.4
		C205.7,119.1,203.4,119.1,200.8,119.1z M220.9,91c-1.7,4.2-3.3,8-4.9,12c3.4,0,6.4,0,9.8,0C224.2,99,222.6,95.2,220.9,91z"/>
	<path class="st0" d="M318.9,107.7c1.8,1.7,3.5,3.4,5.3,5.1c-3.3,5.4-12.7,8.4-20.5,6.4c-8-2-14-9.1-14.5-17.1
		c-0.6-9.8,4.1-17.5,12.5-20.6c7.9-2.9,18-0.7,22.3,4.8c-1.7,2-3.4,3.9-5.3,6.1c-3.3-3.1-7.1-4.9-11.7-4.2c-2.6,0.4-4.8,1.8-6.5,3.9
		c-3.7,4.7-3.4,12.1,0.6,16.3C305.6,113.2,311,113,318.9,107.7z"/>
	<path class="st0" d="M28.5,113.3c2.4-2.3,4.9-4.8,7.6-7.4c4.2,4.3,8.5,8.8,13,13.5c4.7-4.9,9.1-9.4,13.3-13.8
		c2.9,2.8,5.4,5.4,7.9,7.8c-7,6.9-14,14-21,20.9C42.6,127.4,35.6,120.4,28.5,113.3z"/>
	<path class="st0" d="M49.6,80.8c-4.7,4.8-9,9.2-13.2,13.5c-2.8-2.8-5.4-5.3-8-7.8c6.9-6.9,14-13.9,21-21c7,7,14,14,21,21.1
		c-2.5,2.4-5.1,4.9-7.8,7.5C58.5,89.9,54.2,85.4,49.6,80.8z"/>
	<path class="st0" d="M141.5,119.1c0-0.8-0.1-1.4-0.1-2c0-11.4,0-22.7,0-34.1c0-1.6,0.3-2.3,2.1-2.1c1.6,0.1,3.1,0.1,4.7,0
		c1.3-0.1,1.8,0.3,1.8,1.7c0,11.7,0,23.4,0,35c0,1.1-0.3,1.6-1.5,1.5C146.1,119.1,143.9,119.1,141.5,119.1z"/>
	<path class="st0" d="M83.9,100.2c-2.4,2.4-5,4.9-7.5,7.4c-2.5-2.5-5.1-5.1-7.6-7.7c2.4-2.4,4.9-4.9,7.4-7.4
		C78.7,95,81.3,97.6,83.9,100.2z"/>
	<path class="st0" d="M56.9,100.1c-2.4,2.4-4.9,5-7.4,7.5c-2.5-2.5-5.1-5.1-7.5-7.6c2.5-2.5,5.1-5,7.7-7.6
		C51.9,94.9,54.4,97.5,56.9,100.1z"/>
	<path class="st0" d="M15,99.8c2.4-2.4,5-4.9,7.3-7.3c2.6,2.5,5.2,5.1,7.8,7.6c-2.4,2.4-4.9,5-7.4,7.5
		C20.1,105.1,17.6,102.5,15,99.8z"/>
</g>
</svg>
