<?xml version="1.0" encoding="utf-8"?>
<!-- Generator: Adobe Illustrator 22.0.1, SVG Export Plug-In . SVG Version: 6.00 Build 0)  -->
<svg version="1.1" id="图层_1" xmlns="http://www.w3.org/2000/svg" xmlns:xlink="http://www.w3.org/1999/xlink" x="0px" y="0px"
	 viewBox="0 0 371 199" style="enable-background:new 0 0 371 199;" xml:space="preserve">
<style type="text/css">
	.st0{fill:none;stroke:#FFFFFF;stroke-width:1.1842;stroke-miterlimit:10;}
	.st1{fill:#FFFFFF;}
</style>
<g>
	<path class="st0" d="M43.8,66.7c0.2,0.2,0.4,0.3,0.7,0.5C53.6,72.1,62.7,77,71.7,82c0.5,0.3,0.6,0.5,0.6,1.1c0,9.9,0,19.9,0,29.8
		c0,0.5-0.2,0.8-0.7,1.1c-9,4.9-18,9.8-27,14.7c-0.2,0.1-0.4,0.3-0.6,0.4c-0.3,0-0.6,0-0.9,0c-0.2-0.1-0.4-0.3-0.6-0.4
		c-5.7-3.1-11.5-6.3-17.2-9.4c-3.5-1.9-6.9-3.8-10.4-5.6c0-10.4,0-20.8,0-31.2c0.1,0,0.2-0.1,0.2-0.1c9.2-5,18.4-10,27.5-15
		c0.3-0.2,0.5-0.4,0.8-0.5C43.7,66.7,43.8,66.7,43.8,66.7z M57.6,91c0-0.2,0-0.3,0-0.3c-0.8-3.4-1.7-6.8-2.5-10.2
		c-0.1-0.4-0.3-0.4-0.6-0.4c-7.2,0-14.4,0-21.6,0c-0.4,0-0.6,0.1-0.7,0.5c-0.6,2.6-1.2,5.1-1.9,7.7c-0.2,0.9-0.4,1.8-0.6,2.7
		C39.1,91,48.3,91,57.6,91z M22.1,100.1c3.4,5.6,6.7,11.1,10.1,16.6c0.1,0.2,0.4,0.3,0.6,0.3c1.1,0,2.2,0,3.2,0
		c0.3,0,0.7-0.1,0.9-0.3c1.1-0.9,2.1-2,3.3-2.8c0.9-0.7,1.4-1.5,1.2-2.7c-0.1-0.4-0.1-0.8-0.5-1.1c-1.4-1.2-2.8-2.5-4.2-3.8
		c-0.2-0.2-0.4-0.6-0.4-0.9c0-2.1,0-4.1,0-6.2c0-0.3-0.2-0.6-0.4-0.8c-2-1.2-3.9-2.4-5.9-3.6c-0.3-0.2-0.5-0.1-0.8,0.1
		c-2.3,1.6-4.6,3.2-6.8,4.8C22.4,99.9,22.3,100,22.1,100.1z M65.3,100.1c-2.5-1.8-4.9-3.5-7.3-5.2c-0.2-0.1-0.6,0-0.7,0.1
		c-1.9,1.1-3.8,2.3-5.7,3.5c-0.4,0.2-0.5,0.5-0.5,0.9c0,2,0,3.9,0,5.9c0,0.5-0.1,0.8-0.5,1.2c-1.2,1-2.2,2.1-3.4,3
		c-0.9,0.7-1.4,1.6-1.2,2.7c0.1,0.3,0.2,0.7,0.4,0.9c1.3,1.2,2.7,2.4,4.1,3.5c0.2,0.2,0.6,0.3,0.9,0.4c0.9,0,1.8,0,2.8,0
		c0.6,0,0.9-0.2,1.2-0.6c2.8-4.6,5.6-9.2,8.3-13.8C64.3,101.8,64.8,101,65.3,100.1z M38.1,105.5c3.8,0,7.4,0,11.2,0
		c-0.2-2.1-0.4-4.2-0.6-6.2c0-0.3,0-0.7,0.1-1c0.6-1.7,1.3-3.3,2-5c0.1-0.2,0.1-0.4,0.2-0.6c-4.9,0-9.7,0-14.6,0
		c0.1,0.3,0.2,0.5,0.2,0.7c0.7,1.7,1.3,3.3,2,5c0.1,0.2,0.2,0.5,0.1,0.7c-0.1,0.9-0.2,1.9-0.3,2.8C38.4,103.1,38.2,104.3,38.1,105.5
		z"/>
	<path class="st1" d="M360,112.3c-1.8,0-3.7,0.1-5.5,0c-0.1,0-0.3-0.3-0.3-0.5c0-0.7,0-1.5,0-2.2c0-3.7,0-7.4,0-11.1
		c0-0.9-0.1-1.8-0.3-2.6c-0.5-2.2-1.9-3.4-4.4-3.6c-2.2-0.2-4.3,0.8-5.3,2.6c-0.6,1.1-0.8,2.4-0.8,3.6c0,4.3,0,8.7,0,13
		c0,0.3,0,0.5,0,0.8c-1.9,0-3.8,0-5.8,0c0-0.3,0-0.5,0-0.8c0-4.4,0-8.8,0-13.2c0-0.9-0.1-1.8-0.4-2.7c-0.5-1.9-1.8-3.1-3.9-3.4
		c-2.2-0.3-4.1,0.4-5.4,2.2c-0.7,1-1,2.2-1,3.3c0,4.6,0,9.1,0,13.7c0,0.3,0,0.5,0,0.8c-1.9,0-3.8,0-5.8,0c0-0.2-0.1-0.5-0.1-0.7
		c0-7.9,0-15.7,0-23.6c0-0.6,0.2-0.8,0.8-0.8c1.6,0,3.3,0,5,0c0,1.3,0,2.6,0,3.9c0,0,0.1,0.1,0.1,0.1c1.9-2.5,4.4-4,7.7-4
		c3.3,0,5.8,1.3,7.5,4.2c0.2-0.2,0.3-0.4,0.5-0.5c2.6-3,6-4.1,10-3.6c3.7,0.5,6.3,3,6.9,6.6c0.1,0.6,0.2,1.2,0.3,1.8
		C360,101.3,360,106.8,360,112.3z"/>
	<path class="st1" d="M175.6,108.2c0,3.6,0,7.2,0,10.8c-1.9,0-3.8,0-5.7,0c0-10.6,0-21.2,0-31.8c1.9,0,3.8,0,5.7,0
		c0,1.4,0,2.8,0,4.4c0.2-0.2,0.3-0.2,0.4-0.3c5-6.5,14.5-4.6,18.2,1.2c3.2,5.1,2.4,12.6-1.8,16.6c-3.9,3.6-10,4.2-14.1,1.3
		C177.4,109.9,176.6,109.1,175.6,108.2z M175.4,99.8c0.2,1.1,0.4,2.2,0.8,3.2c1.1,2.7,3.1,4.3,6.2,4.6c2.9,0.3,5.1-0.8,6.7-3.2
		c1.4-2.1,1.6-4.4,1-6.8c-1.1-4.9-6.8-7.1-11-4.4C176.6,94.8,175.6,97.1,175.4,99.8z"/>
	<path class="st1" d="M233.1,87.3c6.3,0.1,11.4,3.7,13,9.2c2.1,7.1-2.7,14.4-10.3,15.6c-5.3,0.9-10-0.4-13.4-4.4
		c-6.2-7.2-2-18.3,7.7-20.1C231,87.4,232.1,87.4,233.1,87.3z M233,92.1c-1.8,0-3.4,0.5-4.7,1.5c-2.8,2.2-3.5,5.1-2.7,8.3
		c1.3,5.4,8.1,7.6,12.5,4.1c2.1-1.7,2.8-4,2.8-6.6C240.6,95.2,237.2,92,233,92.1z"/>
	<path class="st1" d="M302.7,87.3c6.4,0.1,11.5,3.8,13.1,9.4c2,7-2.8,14.3-10.4,15.5c-5.1,0.8-9.6-0.3-13-4
		c-6.7-7.1-2.6-18.6,7.2-20.5C300.6,87.4,301.7,87.4,302.7,87.3z M294.8,99.8c0.1,0.6,0.1,1.1,0.2,1.7c1,5.4,7.3,8,12,4.9
		c2.2-1.5,3.2-3.6,3.3-6.1c0.4-5.2-4.2-9-9.6-8C297.3,92.9,294.9,96,294.8,99.8z"/>
	<path class="st1" d="M165.7,87.3c-0.5,1.4-1,2.6-1.6,3.9c-3.7,9.1-7.4,18.2-11.1,27.3c-0.2,0.5-0.5,0.7-1.1,0.7c-1.7,0-3.3,0-5.1,0
		c0.2-0.4,0.3-0.7,0.4-1c0.7-1.7,1.4-3.4,2.1-5.1c0.2-0.4,0.2-0.8,0-1.2c-3.5-7.9-7-15.8-10.5-23.7c-0.1-0.3-0.2-0.5-0.3-0.8
		c0.3,0,0.5,0,0.7,0c1.6,0,3.1,0,4.7,0c0.6,0,0.8,0.2,1,0.7c2.3,5.7,4.6,11.4,6.9,17.1c0.1,0.2,0.2,0.5,0.4,0.8
		c0.2-0.4,0.3-0.8,0.5-1.1c2.2-5.6,4.4-11.2,6.5-16.8c0.2-0.6,0.5-0.8,1.2-0.7C162.2,87.3,163.9,87.3,165.7,87.3z"/>
	<path class="st1" d="M282.2,104.9c1.2,1.1,2.3,2.1,3.5,3.1c-2.2,3.4-8.5,5.2-13.6,3.9c-5.5-1.4-9.4-5.9-9.7-11
		c-0.4-6.3,3.4-11.1,8.5-12.9c5.3-1.8,11.8-0.3,15,3.6c-1.3,1.1-2.6,2.2-3.8,3.3c0.1,0.1,0.1,0.2,0.2,0.3c-0.4-0.4-0.8-0.8-1.3-1.1
		c-3.2-2.6-7.6-2.6-10.4,0c-3.9,3.7-2.9,10.6,1.9,12.8c2.8,1.3,5.5,1,8.1-0.7C281.1,105.8,281.7,105.3,282.2,104.9z"/>
	<path class="st1" d="M111.5,104.7c1.1,1.1,2.2,2.2,3.3,3.3c-3.2,3.8-8.4,5.2-13.7,3.9c-5.5-1.3-9.3-5.8-9.6-11.3
		c-0.3-5.4,3-10.5,8.3-12.5c5.2-1.9,11.7-0.6,15,3.3c-1.2,1.2-2.3,2.4-3.5,3.6c-0.5-0.4-0.9-0.8-1.4-1.2c-2.4-1.7-5-2.3-7.8-1.3
		c-2.8,1-4.3,3.2-4.7,6c-0.5,3.1,0.4,5.8,3.1,7.8c2.8,2,6.7,1.8,9.6-0.5C110.6,105.5,111,105.1,111.5,104.7z"/>
	<path class="st1" d="M203.2,92.5c-1.1,0-2.1,0-3.2,0c0-1.6,0-3.1,0-4.7c1,0,2,0,3.1,0c0-2.2,0-4.4,0-6.6c2,0,3.9,0,5.8,0
		c0,2.2,0,4.3,0,6.6c1.8,0,3.6,0,5.4,0c0,1.6,0,3.1,0,4.7c-1.8,0-3.5,0-5.4,0c0,0.3,0,0.5,0,0.7c0,3.6,0,7.3,0,10.9
		c0,0.4,0,0.8,0.1,1.2c0.3,1.2,1.1,1.8,2.3,2c0.5,0,1,0.1,1.5,0.1c0.5,0,0.9,0,1.5,0c0,1.6,0,3.2,0,4.9c-2.4-0.1-4.7,0.3-7-0.4
		c-2.5-0.7-4-2.6-4.1-5.4c-0.1-4.1-0.1-8.2-0.1-12.3C203.2,93.6,203.2,93.1,203.2,92.5z"/>
	<path class="st1" d="M126,112.4c-2,0-3.8,0-5.7,0c0-8.3,0-16.6,0-25c1.9,0,3.8,0,5.7,0c0,1.9,0,3.7,0,5.6c0,0,0.1,0.1,0.1,0.1
		c1.8-3.6,4.5-5.8,8.9-5.7c0,1.9,0,3.8,0,5.8c-0.6,0.1-1.3,0.1-1.9,0.2c-3.7,0.6-6.2,3-6.8,6.7c-0.2,1-0.2,2-0.3,3
		c0,2.9,0,5.7,0,8.6C126,111.8,126,112.1,126,112.4z"/>
	<path class="st1" d="M57.6,91c-9.3,0-18.5,0-27.9,0c0.2-0.9,0.4-1.8,0.6-2.7c0.6-2.6,1.3-5.1,1.9-7.7c0.1-0.4,0.3-0.5,0.7-0.5
		c7.2,0,14.4,0,21.6,0c0.3,0,0.5,0,0.6,0.4c0.8,3.4,1.7,6.8,2.5,10.2C57.6,90.8,57.6,90.9,57.6,91z"/>
	<path class="st1" d="M22.1,100.1c0.1-0.1,0.2-0.2,0.3-0.3c2.3-1.6,4.6-3.2,6.8-4.8c0.3-0.2,0.5-0.3,0.8-0.1c2,1.2,3.9,2.4,5.9,3.6
		c0.2,0.1,0.4,0.5,0.4,0.8c0,2.1,0,4.1,0,6.2c0,0.3,0.2,0.7,0.4,0.9c1.4,1.3,2.8,2.5,4.2,3.8c0.3,0.3,0.4,0.6,0.5,1.1
		c0.2,1.2-0.3,2-1.2,2.7c-1.2,0.9-2.2,1.9-3.3,2.8c-0.2,0.2-0.6,0.3-0.9,0.3c-1.1,0-2.2,0-3.2,0c-0.2,0-0.5-0.2-0.6-0.3
		C28.8,111.2,25.5,105.7,22.1,100.1z"/>
	<path class="st1" d="M65.3,100.1c-0.5,0.9-1,1.7-1.5,2.5c-2.8,4.6-5.6,9.2-8.3,13.8c-0.3,0.5-0.6,0.7-1.2,0.6c-0.9,0-1.8,0-2.8,0
		c-0.3,0-0.7-0.1-0.9-0.4c-1.4-1.2-2.8-2.3-4.1-3.5c-0.2-0.2-0.4-0.6-0.4-0.9c-0.2-1.1,0.2-2,1.2-2.7c1.2-0.9,2.3-2,3.4-3
		c0.4-0.3,0.5-0.7,0.5-1.2c0-2,0-3.9,0-5.9c0-0.4,0.1-0.7,0.5-0.9c1.9-1.1,3.8-2.3,5.7-3.5c0.2-0.1,0.6-0.2,0.7-0.1
		C60.4,96.6,62.8,98.3,65.3,100.1z"/>
	<path class="st1" d="M38.1,105.5c0.1-1.2,0.2-2.4,0.4-3.6c0.1-0.9,0.2-1.9,0.3-2.8c0-0.2-0.1-0.5-0.1-0.7c-0.7-1.7-1.3-3.3-2-5
		c-0.1-0.2-0.1-0.4-0.2-0.7c4.9,0,9.7,0,14.6,0c-0.1,0.2-0.1,0.4-0.2,0.6c-0.7,1.7-1.3,3.3-2,5c-0.1,0.3-0.2,0.7-0.1,1
		c0.2,2.1,0.4,4.1,0.6,6.2C45.5,105.5,41.9,105.5,38.1,105.5z"/>
	<ellipse class="st1" cx="254.9" cy="109.7" rx="2.8" ry="2.7"/>
</g>
</svg>
