<?xml version="1.0" encoding="utf-8"?>
<!-- Generator: Adobe Illustrator 22.0.1, SVG Export Plug-In . SVG Version: 6.00 Build 0)  -->
<svg version="1.1" id="图层_1" xmlns="http://www.w3.org/2000/svg" xmlns:xlink="http://www.w3.org/1999/xlink" x="0px" y="0px"
	 viewBox="0 0 371 199" style="enable-background:new 0 0 371 199;" xml:space="preserve">
<style type="text/css">
	.st0{fill:#FFFFFF;}
</style>
<g>
	<path class="st0" d="M119.6,160.6c0-3.1,0-6.1,0-9.1c0-0.3,0.4-0.7,0.7-0.9c3.9-2.5,7.9-4.9,11.8-7.3c4.5-2.7,8.9-5.5,13.4-8.2
		c4.7-2.9,9.4-5.7,14-8.6c1.1-0.7,2.2-1.3,3.3-2.1c0.3-0.2,0.6-0.7,0.6-1c0-12.8,0-25.6,0-38.4c0-0.1,0-0.3-0.1-0.6
		c-1,0.6-2,1-2.9,1.6c-6.8,3.9-13.5,7.8-20.2,11.7c-3.8,2.2-7.6,4.4-11.5,6.6c-0.7,0.4-0.9,0.8-0.9,1.5c0,3.9,0,7.8,0,11.8
		c0,0.6-0.2,1-0.8,1.3c-2.5,1.4-4.9,2.8-7.4,4.3c0-0.5-0.1-0.8-0.1-1.2c0-7,0-14.1,0-21.1c0-0.8,0.3-1.1,1-1.5c4-2.3,8-4.6,12-6.9
		c4.2-2.5,8.5-4.9,12.7-7.4c4.2-2.4,8.3-4.8,12.5-7.2c4.3-2.5,8.6-5,12.9-7.5c0.2-0.1,0.5-0.2,0.9-0.4c0,0.4,0,0.8,0,1.1
		c0,18.9,0,37.8,0,56.7c0,0.7-0.3,1.1-0.8,1.4c-6.6,4.1-13.2,8.1-19.8,12.2c-7.8,4.8-15.5,9.6-23.3,14.3c-2.4,1.5-4.9,3-7.3,4.5
		C120.2,160.4,119.9,160.4,119.6,160.6z"/>
	<path class="st0" d="M114.2,160.7c-1-0.6-1.9-1.1-2.8-1.6c-6.9-4.3-13.8-8.6-20.7-12.8c-8.3-5.1-16.6-10.2-24.8-15.2
		c-0.7-0.4-1.5-0.9-2.2-1.3c-1-0.5-1.4-1.3-1.4-2.5c0.1-18.5,0-37,0-55.5c0-0.5,0-1.1,0-1.8c2.7,1.6,5.3,3,7.9,4.6
		c0.2,0.1,0.3,0.4,0.3,0.6c0.1,0.5,0,1,0,1.4c0,15.5,0,30.9,0,46.4c0,0.9,0.4,1.4,1.1,1.8c5.1,3.1,10.3,6.3,15.4,9.5
		c6.1,3.8,12.2,7.6,18.4,11.3c0.2,0.1,0.4,0.1,0.7,0.1c0-0.4,0-0.8,0-1.1c0-12.9,0-25.9,0-38.8c0-0.7-0.2-1.2-0.9-1.6
		c-3.4-1.9-6.7-3.8-10-5.8c-0.3-0.2-0.6-0.5-0.6-0.8c0-2.9,0-5.9,0-9c0.8,0.4,1.5,0.7,2.1,1.1c5.7,3.2,11.3,6.5,16.9,9.8
		c0.5,0.3,0.7,0.6,0.7,1.3c0,19.6,0,39.2,0,58.9C114.3,159.9,114.3,160.2,114.2,160.7z"/>
	<path class="st0" d="M82.5,66.1c1.3,0.8,2.4,1.4,3.5,2c4.1,2.4,8.1,4.7,12.2,7.1c5.2,3,10.5,6,15.8,9.1c0.4,0.2,0.9,0.4,1.2,0.8
		c1.6,1.5,2.9,0.3,4.2-0.5c2.8-1.6,5.6-3.2,8.4-4.8c0.2-0.1,0.7-0.2,0.9,0c2.6,1.4,5.1,2.9,7.9,4.4c-1,0.6-1.8,1.2-2.7,1.7
		c-5.1,2.9-10.3,5.7-15.3,8.8c-1.6,1-2.6,0.3-3.7-0.4c-7-4-14-8.1-21.1-12.1c-4.8-2.8-9.5-5.6-14.3-8.3c-4.2-2.4-8.3-4.8-12.5-7.2
		c-0.2-0.1-0.4-0.3-0.6-0.4c-0.5-0.3-0.5-0.6,0-0.9c2.2-1.2,4.4-2.4,6.6-3.6c4.9-2.7,9.9-5.3,14.8-8c4.5-2.4,8.9-4.8,13.4-7.2
		c4.7-2.5,9.3-5.1,14-7.6c0.1,0,0.2-0.1,0.3-0.2c1.1-0.8,2-0.7,3.2,0c5.1,2.8,10.2,5.6,15.4,8.3c5.7,3.1,11.5,6.2,17.2,9.3
		c4.6,2.5,9.3,5,13.9,7.6c0.8,0.5,1.7,1,2.5,1.4c0.6,0.3,0.6,0.6,0.1,0.9c-2.5,1.4-4.9,2.8-7.4,4.2c-0.2,0.1-0.5,0.1-0.6,0
		c-3-1.6-6-3.2-9-4.8c-4.4-2.4-8.8-4.7-13.2-7.1c-4.4-2.4-8.9-4.8-13.3-7.2c-2.2-1.2-4.5-2.4-6.7-3.5c-0.2-0.1-0.6-0.1-0.8,0
		c-4,2.1-8,4.3-12,6.4C99,57.1,93.6,60.1,88.2,63C86.4,64,84.5,65,82.5,66.1z"/>
	<path class="st0" d="M217,78.9c-1.9-1.5-3.7-2.5-5.8-2.8c-1.7-0.2-3.4-0.4-5.1-0.4c-3.9,0.1-7.6,2.9-9.1,6.6c-1,2.5-1.2,5-0.7,7.5
		c0.7,3.7,3,6.4,6.4,8c1.7,0.8,3.5,1.3,5.4,1.2c4-0.2,7.2-1.9,8.8-5.8c0.2-0.5,0.2-1.2,0.3-1.9c-2.8,0-5.5,0-8.2,0
		c0-1.8,0-3.5,0-5.3c4.9,0,9.7,0,14.9,0c-0.2,1.7-0.2,3.4-0.5,5.1c-0.3,1.6-0.7,3.2-1.3,4.7c-1.6,3.8-4.4,6.4-8.3,7.8
		c-3,1.1-6.2,1.2-9.2,0.7c-6.4-1.1-11.3-4.6-13.9-10.7c-0.8-1.8-1.3-3.9-1.2-5.9c0.1-7,3.1-13.1,10.7-16.4c2.9-1.2,6-1.6,9.1-1.3
		c3.6,0.4,7,1.4,10,3.6c0.7,0.5,0.8,0.9,0.3,1.6C218.6,76.4,217.8,77.7,217,78.9z"/>
	<path class="st0" d="M312.8,103.7c-0.3,0.1-0.4,0.2-0.6,0.2c-1.9,0-3.8,0-5.6,0c-0.4,0-0.8-0.4-1-0.8c-0.8-1.5-1.4-3.1-2.1-4.6
		c-0.2-0.5-0.6-0.7-1.2-0.7c-4.5,0-9,0-13.5,0c-0.5,0-0.7,0.1-1,0.6c-0.7,1.6-1.5,3.2-2.3,4.7c-0.2,0.4-0.7,0.7-1.1,0.8
		c-1.7,0.1-3.5,0-5.2,0c-0.7,0-0.8-0.2-0.5-0.9c3.5-6.9,6.9-13.7,10.4-20.6c2.1-4.3,4.2-8.6,6.5-13.2
		C301.3,80.8,307,92.2,312.8,103.7z M295.5,82.1c-1.7,3.6-3.3,6.9-4.9,10.4c3.3,0,6.5,0,9.8,0C298.8,89,297.2,85.6,295.5,82.1z"/>
	<path class="st0" d="M237.8,69.3c0.6,1.2,1.2,2.3,1.7,3.4c2.6,5.1,5.1,10.2,7.7,15.3c2.4,4.8,4.8,9.5,7.1,14.3
		c0.8,1.6,0.8,1.7-1.1,1.7c-1.4,0-2.8,0-4.2,0c-0.7,0-1-0.3-1.3-0.9c-0.7-1.5-1.4-3.1-2.1-4.6c-0.2-0.3-0.7-0.6-1.1-0.6
		c-4.5,0-9,0-13.5,0c-0.4,0-0.8,0-1,0.6c-0.7,1.6-1.5,3.2-2.3,4.8c-0.2,0.3-0.6,0.7-0.9,0.7c-2,0.1-3.9,0-6.3,0
		C226.3,92.3,231.9,81,237.8,69.3z M242.7,92.5c-1.7-3.5-3.3-6.9-5-10.4c-1.7,3.6-3.2,6.9-4.9,10.4
		C236.2,92.5,239.4,92.5,242.7,92.5z"/>
	<path class="st0" d="M256.9,70.8c2,0,4,0,6.1,0c0,0.4,0,0.8,0,1.2c0,8.3,0,16.5,0,24.8c0,1.3,0.1,1.4,1.4,1.4c3.8,0,7.5,0,11.3,0
		c0.4,0,0.7,0,1.2,0c0,1.7,0,3.4,0,5.1c0,0.2-0.5,0.5-0.8,0.5c-6.1,0-12.3,0-18.4,0c-0.5,0-0.8-0.1-0.8-0.7c0-10.6,0-21.3,0-31.9
		C256.8,71,256.8,71,256.9,70.8z"/>
	<path class="st0" d="M248.5,112.7c2.5,4.5,5.1,9.1,7.7,13.8c2.6-4.7,5.1-9.2,7.8-13.9c0.2,0.9,0.4,1.7,0.5,2.5
		c0.2,1.4,0.3,2.8,0.5,4.2c0.4,3.2,0.8,6.4,1.2,9.6c0.1,0.5,0,1,0,1.6c-0.2,0-0.4,0.1-0.6,0.1c-2.1,0-1.7,0.1-1.8-1.7
		c-0.3-3-0.6-6-1.1-9c-2.3,3.6-4.2,7.5-6.5,11.3c-0.8-1.4-1.5-2.7-2.2-4c-1.2-2.3-2.5-4.5-3.7-6.8c-0.1-0.1-0.3-0.2-0.4-0.4
		c-0.1,0.1-0.2,0.3-0.3,0.4c0,0,0,0.1,0,0.2c-0.2,2.1-0.3,4.3-0.5,6.4c-0.1,1-0.2,2-0.4,3c0,0.2-0.4,0.5-0.6,0.5
		c-0.6,0.1-1.1,0-1.9,0c0.7-6,1.4-11.9,2.1-17.8C248.3,112.7,248.4,112.7,248.5,112.7z"/>
	<path class="st0" d="M220.2,116.3c-1.2-0.5-2.3-1.1-3.4-1.4c-3.4-1-6.6-0.1-8.3,3c-1.8,3.2-1.2,7,1.9,9.5c2.7,2.1,7.1,2,9.1-0.9
		c0.5-0.7,0.8-1.4,1-2.2c0-0.1-0.5-0.6-0.8-0.6c-1.1-0.1-2.1-0.1-3.2,0c-0.7,0-0.9-0.3-0.8-1c0-0.6,0.1-1.1,0.8-1.1
		c1.8,0,3.7,0,5.5,0c0.3,0,0.9,0.6,0.8,0.8c-0.3,2.5-0.9,4.9-3,6.5c-2.1,1.7-4.5,2.3-7.2,1.7c-3.3-0.7-5.6-2.4-6.9-5.5
		c-1.7-3.8-0.5-8.1,2.6-10.6c2.6-2.1,5.6-2.6,8.8-1.7c1,0.3,2,0.8,3,1.3c0.9,0.4,1,0.9,0.3,1.6C220.5,116,220.3,116.2,220.2,116.3z"
		/>
	<path class="st0" d="M242.2,130.4c-0.2,0.1-0.3,0.1-0.3,0.1c-2.1,0.2-2.2,0.1-3.1-2c-0.9-2.1-0.9-2.1-3.1-2.1c-1.8,0-3.5,0-5.3,0
		c-0.8,0-1.2,0.3-1.4,1c-0.3,0.8-0.6,1.5-1,2.3c-0.3,0.6-0.7,1.1-1.5,0.9c-0.4-0.1-0.8,0-1.5,0c2.9-6.1,5.7-12.1,8.4-18
		c0.1,0,0.2,0,0.3,0C236.6,118.4,239.4,124.4,242.2,130.4z M236.9,124.3c-1.1-2.4-2.1-4.7-3.3-7.2c-1.2,2.5-2.2,4.8-3.3,7.2
		C232.6,124.3,234.6,124.3,236.9,124.3z"/>
	<path class="st0" d="M271.6,113c3.1,0,6.2,0,9.3,0c0,0.3,0,0.6,0.1,0.9c0.1,0.8-0.2,1.1-1,1.1c-1.8-0.1-3.6,0-5.4,0
		c-0.7,0-1,0.2-0.9,0.9c0.1,1.1,0,2.2,0,3.3c0,0.6,0.2,0.8,0.8,0.8c1.2,0,2.4,0,3.6,0c1.8,0,1.8,0,1.6,2c-0.9,0-1.7,0-2.6,0
		c-3.4,0-3.4,0-3.4,3.4c0,0.6,0,1.3,0,1.9c-0.1,0.8,0.2,1.1,1.1,1.1c2.3-0.1,4.6,0,7,0c0,0.2,0.1,0.4,0.1,0.5
		c0.1,1.5,0.1,1.5-1.5,1.5c-2.9,0-5.7,0-8.7,0C271.6,124.7,271.6,118.9,271.6,113z"/>
	<path class="st0" d="M286.9,126.9c1,1.3,2.5,1.7,4,1.9c1.3,0.2,3.1-0.8,3.5-1.8c0.5-1.5-0.3-3.3-1.9-4.2c-1.3-0.7-2.5-1.3-3.8-2
		c-1.8-1-2.4-2.7-2.1-4.7c0.3-1.6,1.3-2.7,2.9-3.2c2.3-0.8,4.3-0.4,6.3,0.9c0.2,0.1,0.4,0.3,0.6,0.5c-0.1,0.2-0.1,0.2-0.1,0.3
		c-0.3,0.4-0.6,1-1,1.2c-0.3,0.1-0.8-0.5-1.2-0.6c-1.1-0.2-2.2-0.5-3.3-0.4c-1,0.1-1.7,0.8-1.8,2c-0.1,0.9,0.4,1.9,1.3,2.5
		c1.5,0.8,3.1,1.6,4.5,2.5c1.9,1.2,2.4,3.1,2.1,5.2c-0.2,1.7-1.3,2.7-2.8,3.4c-2.6,1.2-5,0.8-7.3-0.7
		C285.3,128.6,285.3,128,286.9,126.9z"/>
</g>
</svg>
