<?xml version="1.0" encoding="utf-8"?>
<!-- Generator: Adobe Illustrator 22.0.1, SVG Export Plug-In . SVG Version: 6.00 Build 0)  -->
<svg version="1.1" id="图层_1" xmlns="http://www.w3.org/2000/svg" xmlns:xlink="http://www.w3.org/1999/xlink" x="0px" y="0px"
	 viewBox="0 0 371 199" style="enable-background:new 0 0 371 199;" xml:space="preserve">
<style type="text/css">
	.st0{fill:#FFFFFF;}
	.st1{fill:#2CA6E0;}
</style>
<path class="st0" d="M143.2,69v29.2h-29V72.8c0-2.1-1.7-3.8-3.8-3.8h-9.8v69.9c0,2.1,1.7,3.8,3.8,3.8h9.8v-32.6h29v28.8
	c0,2.1,1.6,3.8,3.7,3.8h0.1h9.8v-70c0-2.1-1.7-3.8-3.8-3.8L143.2,69L143.2,69z M200.8,87.3v35c0,3.2-1.6,6.2-4.4,7.8
	c-7.7,4.4-15.7-1.1-15.7-8.4V91.1c0-2.1-1.7-3.8-3.8-3.8h-9.8V123c0,11.5,9.3,20.8,20.8,20.8h5.6c11.5,0,20.8-9.4,20.9-20.9V91.1
	c0-2.1-1.7-3.8-3.8-3.8C210.6,87.3,200.8,87.3,200.8,87.3z"/>
<path class="st1" d="M349.4,142.8h9.8V93.1c0-2.1-1.7-3.8-3.8-3.8h-9.8v49.6C345.6,141,347.3,142.7,349.4,142.8L349.4,142.8z"/>
<ellipse transform="matrix(0.3827 -0.9239 0.9239 0.3827 146.8662 372.8115)" class="st1" cx="352.4" cy="76.5" rx="7.6" ry="7.6"/>
<path class="st0" d="M249.5,87.3c-14.3,0-25.9,10.2-25.9,24.4v7.7c0,14.3,11.7,24.4,25.9,24.4c14.2,0,25.9-10.1,25.9-24.4v-7.7
	C275.4,97.5,263.8,87.3,249.5,87.3z M261.8,120.3c0,6.7-5.5,11.2-12.3,11.2s-12.2-4.5-12.2-11.2v-9.6c0-6.7,5.5-11.2,12.2-11.2
	s12.3,4.5,12.3,11.2V120.3z"/>
<path class="st1" d="M310.5,87.3c-4.3,0-8.5,0.9-12.3,2.8V72.9c0-2.1-1.7-3.8-3.8-3.8h-9.8v50.3c0,14.3,11.7,24.4,25.9,24.4
	c14.3,0,25.9-10.1,25.9-24.4v-7.7C336.4,97.5,324.8,87.3,310.5,87.3L310.5,87.3z M322.8,120.3c0,6.7-5.5,11.2-12.3,11.2
	c-6.7,0-12.2-4.5-12.2-11.2v-9.6c0-6.7,5.5-11.2,12.2-11.2s12.3,4.5,12.3,11.2V120.3z"/>
<path class="st0" d="M59.4,75.1c0-14.9-7.2-27.6-12.7-31.8c0,0-0.4-0.2-0.4,0.4c-0.5,28.7-15.1,36.5-23.2,46.9
	c-18.6,24.2-1.3,50.7,16.3,55.6c9.8,2.7-2.3-4.9-3.8-20.9C33.7,105.9,59.4,91.1,59.4,75.1L59.4,75.1z"/>
<path class="st1" d="M67.9,84.8c-0.1-0.1-0.3-0.1-0.4,0.1c-0.3,3.6-4,11.3-8.7,18.4C43,127.4,52,139,57.1,145.2c3,3.6,0,0,7.4-3.7
	c9.1-5.5,15-15.1,15.9-25.7C81.8,98.7,71.5,88,67.9,84.8L67.9,84.8z"/>
</svg>
