<?xml version="1.0" encoding="utf-8"?>
<!-- Generator: Adobe Illustrator 22.0.1, SVG Export Plug-In . SVG Version: 6.00 Build 0)  -->
<svg version="1.1" id="图层_1" xmlns="http://www.w3.org/2000/svg" xmlns:xlink="http://www.w3.org/1999/xlink" x="0px" y="0px"
	 viewBox="0 0 371 199" style="enable-background:new 0 0 371 199;" xml:space="preserve">
<style type="text/css">
	.st0{fill:#FFFFFF;}
	.st1{fill:url(#SVGID_1_);}
</style>
<path class="st0" d="M139.1,91.1v27.2c0,1.8-0.2,2.9-0.6,3.2c-0.4,0.3-1.6,0.4-3.7,0.4h-1.3V79h1.4c1.9,0,3.1,0.1,3.6,0.4
	c0.5,0.3,1.1,1.2,1.9,2.9l6.5,14.9h1.2l8-18.2h0.9c2.2,0,3.4,0.2,3.8,0.5c0.4,0.3,0.6,1.3,0.6,3.2V122H160c-2.2,0-3.4-0.1-3.8-0.4
	c-0.4-0.3-0.5-1.4-0.5-3.2l-0.1-27.2h-0.2l-4.4,10.7l-1.6,3h-3.9l-1.6-3l-4.5-10.8H139.1z M186.4,116.7v5.3h-18.8V79h18.2v5.1h-12.8
	l0.5,1.5v9.1l-0.5,1.5h12.1v5.3H173l0.5,1.4v12.3l-0.5,1.5H186.4z M208.7,84.1h-7.3l0.5,1.5v32.8c0,1.8-0.2,2.9-0.6,3.2
	c-0.4,0.3-1.6,0.4-3.8,0.4h-1.4V85.6l0.4-1.5h-7.2V79h19.3V84.1z M232.2,122c-2,0-3.3-0.2-3.7-0.5c-0.4-0.3-0.8-1.4-1.1-3.2l-2-10.1
	h-7.5l-2.5,13.7H214c-1.9,0-3.1-0.1-3.6-0.3c-0.5-0.2-0.8-0.8-0.8-1.6c0-0.8,3-14.6,9.1-41.2h5.7l9.8,43H232.2z M221.2,89.9
	l-2.2,11.7l-0.5,1h6.2c0,0-0.1-0.2-0.3-0.5c-0.2-0.4-0.2-0.6-0.2-0.6l-2.3-11.5H221.2z M237.8,116.1c4,0.4,6.9,0.6,8.7,0.6
	c1.8,0,3.1-0.1,3.8-0.4c0.7-0.3,1.3-0.6,1.6-1c0.4-0.4,0.6-1,0.8-1.7c0.2-1,0.3-2.1,0.3-3.5c0-1.4-0.3-2.6-1-3.6
	c-0.7-1-1.3-1.8-1.9-2.3c-0.6-0.5-1.6-1.4-3.1-2.7c-1.5-1.3-2.6-2.3-3.2-2.8c-0.6-0.6-1.5-1.5-2.6-2.7c-2-2.2-3-4.6-3-7
	c0-4.2,0.4-6.8,1.3-7.8c1.4-1.4,2.8-2.2,4.4-2.4c1.6-0.2,3.2-0.4,5-0.4l8.1,1.7c-0.3,2.3-0.8,3.6-1.4,4c-0.3,0.2-0.8,0.4-1.5,0.4
	c-0.7,0-1.6-0.1-2.7-0.4l-2.3-0.4c-2.4,0-3.8,0.5-4.3,1.4c-0.3,0.5-0.5,1-0.6,1.4c0,0.4-0.1,1.1-0.1,2c0,1.6,2,4.1,6,7.5
	c1.9,1.5,3.4,2.8,4.5,3.8c1.1,1,2.1,2.3,3,3.8c1,1.5,1.4,2.9,1.4,4.2c0,1.3,0,2.3-0.1,3c0,0.7-0.1,1.6-0.2,2.9
	c-0.1,1.2-0.3,2.1-0.6,2.8c-0.3,0.7-0.7,1.5-1.3,2.3c-0.6,0.9-1.2,1.5-2,2c-2,1.1-4.5,1.7-7.3,1.7c-1.6,0-3.4-0.2-5.6-0.5
	c-2.1-0.4-3.5-0.6-4.2-0.7V116.1z M283.8,116.7v5.3H265V79h18.2v5.1h-12.8l0.5,1.5v9.1l-0.5,1.5h12.1v5.3h-12.1l0.5,1.4v12.3
	l-0.5,1.5H283.8z M303.3,108.9V79h1.3c2.2,0,3.4,0.2,3.8,0.5c0.4,0.3,0.5,1.3,0.5,3.2V122h-1.8c-2,0-3.2-0.1-3.7-0.4
	c-0.5-0.3-1-1.3-1.6-2.9l-7.7-25.8h-0.3v25.5c0,1.8-0.2,2.9-0.5,3.2c-0.4,0.3-1.6,0.4-3.8,0.4h-1.3V79h1.3c2,0,3.1,0.1,3.6,0.4
	c0.4,0.3,1,1.3,1.6,2.9l8.2,26.5H303.3z M314,116.1c4,0.4,6.9,0.6,8.7,0.6c1.8,0,3.1-0.1,3.8-0.4c0.7-0.3,1.3-0.6,1.6-1
	c0.4-0.4,0.6-1,0.8-1.7c0.2-1,0.3-2.1,0.3-3.5c0-1.4-0.3-2.6-1-3.6c-0.7-1-1.3-1.8-1.9-2.3c-0.6-0.5-1.6-1.4-3.1-2.7
	c-1.5-1.3-2.6-2.3-3.2-2.8c-0.6-0.6-1.5-1.5-2.6-2.7c-2-2.2-3-4.6-3-7c0-4.2,0.4-6.8,1.3-7.8c1.4-1.4,2.8-2.2,4.4-2.4
	c1.6-0.2,3.2-0.4,5-0.4l8.1,1.7c-0.3,2.3-0.8,3.6-1.4,4c-0.3,0.2-0.8,0.4-1.5,0.4c-0.7,0-1.6-0.1-2.7-0.4l-2.3-0.4
	c-2.4,0-3.8,0.5-4.3,1.4c-0.3,0.5-0.5,1-0.6,1.4c0,0.4-0.1,1.1-0.1,2c0,1.6,2,4.1,6,7.5c1.9,1.5,3.4,2.8,4.5,3.8
	c1.1,1,2.1,2.3,3,3.8c1,1.5,1.4,2.9,1.4,4.2c0,1.3,0,2.3-0.1,3c0,0.7-0.1,1.6-0.2,2.9c-0.1,1.2-0.3,2.1-0.6,2.8
	c-0.3,0.7-0.7,1.5-1.3,2.3c-0.6,0.9-1.2,1.5-2,2c-2,1.1-4.5,1.7-7.3,1.7c-1.6,0-3.4-0.2-5.6-0.5c-2.1-0.4-3.5-0.6-4.2-0.7V116.1z
	 M360,116.7v5.3h-18.8V79h18.2v5.1h-12.8l0.5,1.5v9.1l-0.5,1.5h12.1v5.3h-12.1l0.5,1.4v12.3l-0.5,1.5H360z"/>
<linearGradient id="SVGID_1_" gradientUnits="userSpaceOnUse" x1="18.0537" y1="121.6303" x2="108.2374" y2="79.2168" gradientTransform="matrix(1 0 0 -1 0 199)">
	<stop  offset="0" style="stop-color:#42ECCE"/>
	<stop  offset="0.4993" style="stop-color:#AB42EC"/>
	<stop  offset="1" style="stop-color:#337FF1"/>
</linearGradient>
<path class="st1" d="M65.2,90.9L65.2,90.9l-7.4,8.6l-0.1,0c0,0,0,0,0,0c-0.8,0.9-1.7,1.9-2.7,2.9c-2.4,2.5-5,5-7.4,6.9
	c-1.2,0.9-2.2,1.7-3.1,2.2c-0.4,0.2-0.8,0.4-1,0.5c-0.2,0.1-0.4,0.1-0.4,0.1c0,0,0,0,0,0c-1.1,0.3-2.3,0.5-3.5,0.5
	c-7.2,0-13-5.8-13-13c0-7.2,5.8-13,13-13c1.2,0,2.4,0.2,3.5,0.5c0,0,0.1,0,0.4,0.1c0.3,0.1,0.6,0.3,1,0.5c0.9,0.5,1.9,1.2,3.1,2.2
	c1.9,1.5,3.9,3.4,5.9,5.3l7.3-8.5c-4.8-4.7-10.3-9.3-14.7-10.5c-2.1-0.6-4.3-0.9-6.5-0.9c-13.4,0-24.2,10.8-24.2,24.2
	c0,13.4,10.8,24.2,24.2,24.2c2.3,0,4.4-0.3,6.5-0.9c5.8-1.6,13.3-8.8,18.8-14.8l0,0l7.4-8.6l0,0c0.8-0.9,1.7-1.9,2.7-2.9
	c2.4-2.5,5-5,7.4-6.9c1.2-0.9,2.2-1.7,3.1-2.2c0.4-0.2,0.8-0.4,1-0.5c0.3-0.1,0.4-0.1,0.4-0.1c1.1-0.3,2.3-0.5,3.5-0.5
	c7.2,0,13,5.8,13,13c0,7.2-5.8,13-13,13c-1.2,0-2.4-0.2-3.5-0.5c0,0-0.1,0-0.4-0.1c-0.3-0.1-0.6-0.3-1-0.5c-0.9-0.5-1.9-1.2-3.1-2.2
	c-1.9-1.5-4-3.4-6-5.4l-7.3,8.5c4.8,4.8,10.3,9.3,14.7,10.5c2.1,0.6,4.3,0.9,6.5,0.9c13.4,0,24.2-10.8,24.2-24.2
	c0-13.4-10.8-24.2-24.2-24.2c-2.3,0-4.4,0.3-6.5,0.9C78.2,77.8,70.6,84.9,65.2,90.9z"/>
</svg>
