<?xml version="1.0" encoding="utf-8"?>
<!-- Generator: Adobe Illustrator 22.0.1, SVG Export Plug-In . SVG Version: 6.00 Build 0)  -->
<svg version="1.1" id="图层_1" xmlns="http://www.w3.org/2000/svg" xmlns:xlink="http://www.w3.org/1999/xlink" x="0px" y="0px"
	 viewBox="0 0 371 199" style="enable-background:new 0 0 371 199;" xml:space="preserve">
<style type="text/css">
	.st0{fill:#FFFFFF;}
	.st1{fill:#633001;}
	.st2{fill:#FEDC90;}
	.st3{fill:#D1884F;}
</style>
<g>
	<path class="st0" d="M85.2,102.5c0,0.5,0,0.9,0,1.4c0,1.8,0,3.6,0,5.3c0,1.7-0.5,2.2-2.1,2.2c-1.6,0-3.2,0-4.8-0.1
		c-1.1,0-1.6-0.7-1.6-1.7c0-8.3,0-16.6,0-24.9c0-1.3,0.7-1.9,2.3-1.9c3.6,0,7.1,0,10.7,0c0.9,0,1.8,0.1,2.7,0.2
		c6,1,8.8,4.8,8.1,11.1c-0.5,5.2-3.8,8.1-9.5,8.3C89.1,102.5,87.2,102.5,85.2,102.5z M85.2,96.4c1.3,0,2.5,0,3.6,0
		c0.3,0,0.6-0.1,0.9-0.2c1.5-0.5,2.3-1.6,2.3-3.5c0-1.9-0.7-3.2-2.2-3.5c-1.5-0.3-3-0.3-4.5-0.4c-0.1,0.4-0.1,0.6-0.1,0.9
		C85.2,91.9,85.2,94.1,85.2,96.4z"/>
	<path class="st0" d="M345.3,111.3c0,1.9,0,4.1,0,6.3c0,1.7-0.5,2.2-2.1,2.2c-1.4,0-2.9,0-4.3,0c-1.1,0-1.8-0.6-1.9-1.8
		c0-0.3-0.1-0.7-0.1-1c0-7.5,0-15,0-22.5c0-0.4,0.3-1.1,0.7-1.3c5.6-3.1,11.4-3.7,17.4-1.4c3.2,1.3,4.8,4,5.2,7.4
		c0.4,3.2,0.1,6.3-1.9,9.1c-1.8,2.4-4.3,3.6-7.2,3.6C349.2,112,347.3,111.6,345.3,111.3z M347.5,96.4c-0.2,0-0.4,0-0.6,0
		c-1.5,0.1-1.6,0.2-1.6,1.7c0,1.7,0,3.3,0,5c0,1.9,0.7,2.8,2.3,3.1c1.7,0.3,3.3-0.4,3.8-2.1c0.3-1,0.5-2.2,0.5-3.3
		C351.6,97.6,350.4,96.4,347.5,96.4z"/>
	<path class="st0" d="M264.6,112.2c-3.3-0.3-6.4-0.6-9.4-1.9c-0.5-0.2-0.9-0.4-1.3-0.7c-1.6-1-1.7-1.3-0.6-2.9
		c0.4-0.6,0.7-1.2,1.1-1.8c0.9-1.4,0.9-1.4,2.4-0.7c2.4,1.2,4.9,1.8,7.6,1.7c0.4,0,0.8-0.1,1.3-0.2c1-0.3,1.7-0.8,1.8-1.9
		c0.1-1.1-0.3-1.9-1.2-2.4c-1.3-0.7-2.7-1.2-4.1-1.9c-1.7-0.8-3.4-1.6-5-2.6c-2.9-1.7-3.7-4.5-3.3-7.7c0.4-3,2.1-4.9,4.8-6
		c3.5-1.5,7.2-1.3,10.9-0.6c1.7,0.3,3.4,1.1,4.9,1.8c1.2,0.6,1.3,1.2,0.5,2.3c-0.5,0.8-1.1,1.7-1.6,2.5c-0.5,0.8-1,0.9-1.8,0.4
		c-2.2-1.3-4.6-1.8-7.1-1.3c-1.1,0.2-1.9,0.6-2.1,1.8c-0.2,1.2,0.2,2.1,1.2,2.7c1.4,0.7,3,1.3,4.4,2c1.5,0.7,3,1.4,4.5,2.2
		c3.1,1.8,4,4.6,3.6,8c-0.5,3.3-2.5,5.3-5.6,6.2C268.4,111.8,266.5,111.9,264.6,112.2z"/>
	<path class="st0" d="M218.8,101.1c2.2,2.6,4.4,5.2,6.5,7.8c0.5,0.6,0.7,1.4,1.1,2.1c-0.7,0.2-1.5,0.5-2.2,0.5c-1.7,0.1-3.3,0-5,0
		c-0.9,0-1.5-0.3-2-1c-1.4-2-2.9-3.9-4.3-5.9c-0.2-0.3-0.5-0.6-1-1.2c0,1.7,0,3.1,0,4.5c0,0.7,0,1.5-0.1,2.2
		c-0.1,0.8-0.5,1.3-1.3,1.4c-1.9,0.1-3.8,0.1-5.7,0c-1.1,0-1.4-0.9-1.4-1.9c0-3.7,0-7.4,0-11c0-4.5,0-8.9,0-13.4
		c0-1.5,0.5-2.1,2-2.2c1.3-0.1,2.6,0,3.9,0c1.9,0,2.5,0.5,2.5,2.5c0,4,0,8,0,12c0,0.4,0,0.8,0,1.2c0.1,0,0.2,0,0.2,0.1
		c1.4-1.8,2.9-3.6,4.2-5.5c1-1.4,2.1-2.1,3.8-2c1.5,0.1,3,0,4.5,0.1c0.5,0,1.3,0.2,1.4,0.5c0.1,0.4-0.1,1.1-0.5,1.5
		c-2,2.3-4,4.6-6,6.9C219.4,100.4,219.1,100.7,218.8,101.1z"/>
	<path class="st0" d="M293.1,102.9c-1,2.6-1.8,4.9-2.6,7.2c-0.3,1-0.8,1.4-1.8,1.4c-1.2,0-2.3,0-3.5,0c-1,0-1.6-0.3-1.9-1.3
		c-1.7-5.9-3.5-11.9-5.3-17.8c-0.2-0.8,0.1-1.1,0.8-1.1c1.9,0,3.7,0,5.6,0c0.7,0,1.1,0.5,1.2,1.2c0.6,2.6,1.2,5.3,1.8,7.9
		c0.1,0.3,0.2,0.5,0.3,1c0.8-2,1.4-3.8,2.1-5.6c1-2.8,1.9-3.3,4.8-2.6c0.5,0.1,1,0.8,1.3,1.3c0.8,1.9,1.4,3.8,2.1,5.7
		c0.1,0.4,0.3,0.7,0.5,1.3c0.6-2.4,1.1-4.6,1.7-6.7c1-3.9,0-3.4,4.4-3.4c0.8,0,1.6,0,2.4,0c1.4,0,1.5,0.2,1.1,1.5
		c-1.3,4.3-2.6,8.7-3.9,13c-0.4,1.4-0.9,2.9-1.3,4.3c-0.3,1-0.8,1.4-1.8,1.4c-1.2,0-2.3-0.1-3.5,0c-1.1,0.1-1.6-0.4-2-1.4
		C294.8,107.7,294,105.5,293.1,102.9z"/>
	<path class="st0" d="M325.9,109.7c-3.5,2.8-8.8,3.2-12.2,0.8c-2.7-1.9-3.4-4.7-3.5-7.7c-0.2-6.8,4.2-11.6,11.3-12.1
		c3.8-0.3,7.6,0.2,11,2.1c0.6,0.3,0.9,0.7,0.9,1.4c0,5.2,0,10.5,0,15.7c0,1.1-0.4,1.6-1.5,1.5c-1.4,0-2.8-0.1-4.2,0
		C326.5,111.5,326.4,110.4,325.9,109.7z M325.5,100.6c0-0.6,0-1.2,0-1.7c0-2.4-0.4-2.8-2.9-2.4c-0.5,0.1-1.1,0.3-1.5,0.6
		c-2.4,1.4-3.3,6-1.6,8.2c0.7,1,2.5,1.4,3.9,1c1.4-0.4,2.1-1.4,2.1-2.9C325.5,102.4,325.5,101.5,325.5,100.6z"/>
	<path class="st0" d="M192.4,109.6c-2.2,2-4.8,2.5-7.6,2.4c-3.8-0.1-6.8-2.2-7.7-5.9c-1.2-4.7-0.7-9.1,3.2-12.5
		c1.9-1.7,4.3-2.6,6.8-2.9c4-0.5,7.9,0,11.6,1.9c0.7,0.4,1.1,0.8,1.1,1.7c0,5.1,0,10.1,0,15.2c0,1.7-0.2,1.9-1.8,1.9c-1,0-2-0.1-3,0
		C193.6,111.5,192.7,111.2,192.4,109.6z M191.9,100.4C191.9,100.4,191.9,100.4,191.9,100.4c0-1,0.1-2,0-3c0-0.3-0.4-0.8-0.7-0.9
		c-2.2-0.7-4.7,0.5-5.6,2.6c-0.6,1.6-0.8,3.2-0.4,4.9c0.5,1.7,1.7,2.4,3.8,2.2c1.7-0.2,2.7-1.1,2.8-2.8
		C191.9,102.4,191.9,101.4,191.9,100.4z"/>
	<path class="st0" d="M117.4,109.7c-2.2,2-4.8,2.4-7.7,2.3c-4-0.1-7-2.7-7.7-6.6c-0.8-4.6-0.2-8.9,3.8-12.1c1.6-1.3,3.4-2.1,5.5-2.4
		c4.4-0.8,8.7-0.3,12.7,1.8c0.7,0.3,1,0.7,1,1.5c0,5.2,0,10.3,0,15.5c0,1.5-0.2,1.7-1.7,1.7c-1,0-1.9,0-2.9,0
		C118.3,111.4,118.3,111.4,117.4,109.7z M117,100.4c0-1,0.1-2,0-3c0-0.3-0.3-0.8-0.6-0.9c-1.8-0.7-4.3,0.2-5.3,1.9
		c-1,1.8-1.3,3.8-0.6,5.8c0.5,1.6,1.8,2.2,3.9,1.9c1.6-0.2,2.6-1.2,2.6-2.9C117.1,102.4,117,101.4,117,100.4z"/>
	<path class="st0" d="M135.5,93c2.9-2.2,5.9-2.8,9.2-2.2c3.6,0.6,5.6,3.1,5.7,6.7c0.1,4,0,8,0,12c0,1.3-0.6,1.9-1.9,2
		c-1.5,0.1-3,0.1-4.5,0c-1.6-0.1-2.1-0.6-2.1-2.1c0-3.4,0-6.7,0-10.1c0-2-0.6-2.7-2.2-2.7c-1.8,0-2.8,0.9-2.8,2.8c0,3.3,0,6.5,0,9.8
		c0,2-0.5,2.5-2.5,2.5c-1.3,0-2.6,0-3.9,0c-1.6-0.1-2.1-0.6-2.1-2.1c0-5.5,0-11.1,0-16.6c0-1,0.4-1.4,1.3-1.4c1.5,0,2.9,0,4.4,0
		C135.4,91.2,135.5,92,135.5,93z"/>
	<path class="st0" d="M235.6,103.1c0.2,2.1,1.3,3.2,3.5,3.5c2.4,0.3,4.8,0.2,7-1c0.9-0.5,1.3-0.2,1.7,0.6c0.3,0.7,0.6,1.3,1,2
		c0.6,0.9,0.4,1.5-0.6,2c-1.8,1-3.6,1.5-5.6,1.7c-3.7,0.3-7.3,0.3-10.6-1.8c-2.9-1.8-4.4-4.4-4.4-7.8c0-1.3,0-2.6,0.2-3.8
		c0.6-3.6,2.8-6,6.2-7.2c3.5-1.1,7-1.2,10.5,0c4.7,1.6,6.3,6,6,10c-0.1,1.2-0.8,1.7-2.2,1.7c-3.8,0-7.7,0-11.5,0
		C236.4,103.1,236,103.1,235.6,103.1z M242.9,98.9c0-2.3-1.3-3.4-3.8-3.3c-2.3,0.1-3.6,1.3-3.5,3.3C238,98.9,240.4,98.9,242.9,98.9z
		"/>
	<path class="st0" d="M165.5,112c-2.4,0.1-4.7-0.2-6.8-1.2c-4.1-1.8-6.1-5.7-5.5-10.6c0.6-5.1,3.8-8.5,9-9.3
		c3.2-0.5,6.3-0.5,9.4,0.7c0,0,0.1,0,0.1,0c2.9,1,3.1,1.6,1.6,4.2c-1.3,2.4-1.3,2.3-3.8,1.3c-2.1-0.9-4.2-1.2-6.2,0.3
		c-1.7,1.3-2.3,4-1.4,6.3c0.7,1.8,2.4,2.9,4.7,2.7c1.5-0.2,2.9-0.7,4.3-1.3c0.9-0.4,1.5-0.5,2,0.5c0.4,0.9,1,1.8,1.5,2.6
		c0.6,0.9,0.3,1.5-0.6,2C171.1,111.5,168.3,112.1,165.5,112z"/>
</g>
<g>
	<path class="st1" d="M23.9,82.6c-0.8-4.4,2.5-8.4,6.9-8.4c3.9,0,7,3.2,7,7V90c1,0,2-0.2,3-0.2c1,0,1.8,0,2.8,0.2v-8.7
		c0-3.9,3.2-7,7-7c4.4,0,7.7,4,7,8.4l-1.8,10.2c6.5,2.8,11.6,7.9,11.6,14.1v3.9c0,5.2-3.4,9.5-8.2,12.4c-4.9,3-11.2,4.7-18.4,4.7
		s-13.6-1.7-18.4-4.7c-4.7-2.8-8-7.2-8-12.4v-3.9c0-6.2,4.9-11.2,11.4-14.1L23.9,82.6z M53.4,94.2l2.2-12.1c0.5-3-1.7-5.9-4.9-5.9
		c-2.7,0-4.9,2.2-4.9,4.9v11.1C45.1,92,44.3,92,43.6,92c-1,0-1.8-0.2-2.8-0.2c-1,0-2,0-3,0.2c-0.7,0-1.5,0.2-2.2,0.2V81.3
		c0-2.7-2.2-4.9-4.9-4.9c-3,0-5.4,2.8-4.7,5.9l2.2,12.1c-7,2.7-11.7,7.4-11.7,12.7v3.9c0,8.2,10.9,14.9,24.3,14.9
		s24.3-6.7,24.3-14.9v-3.9C65.3,101.5,60.6,96.8,53.4,94.2z"/>
	<path class="st2" d="M65.3,110.8c0,8.2-10.9,14.9-24.3,14.9s-24.3-6.7-24.3-14.9v-3.9h48.8v3.9H65.3z"/>
	<path class="st3" d="M26,82.3c-0.7-3,1.7-5.9,4.7-5.9c2.7,0,4.9,2.2,4.9,4.9v11.1c1.7-0.2,3.4-0.3,5.2-0.3c1.7,0,3.4,0.2,5,0.3
		V81.3c0-2.7,2.2-4.9,4.9-4.9c3,0,5.4,2.8,4.9,5.9l-2.2,12.1c7,2.7,11.9,7.4,11.9,12.7c0,8.2-10.9,14.9-24.3,14.9
		s-24.3-6.7-24.3-14.9c0-5.4,4.7-10.1,11.7-12.7L26,82.3z"/>
	<path class="st1" d="M34.1,105.9c0,2.2-1.2,4-2.7,4c-1.5,0-2.7-1.8-2.7-4c0-2.2,1.2-4,2.7-4C32.9,101.9,34.1,103.7,34.1,105.9z
		 M52.7,105.9c0,2.2-1.2,4-2.7,4c-1.5,0-2.7-1.8-2.7-4c0-2.2,1.2-4,2.7-4C51.5,101.9,52.7,103.7,52.7,105.9z"/>
</g>
</svg>
