<?xml version="1.0" encoding="utf-8"?>
<!-- Generator: Adobe Illustrator 22.0.1, SVG Export Plug-In . SVG Version: 6.00 Build 0)  -->
<svg version="1.1" id="图层_1" xmlns="http://www.w3.org/2000/svg" xmlns:xlink="http://www.w3.org/1999/xlink" x="0px" y="0px"
	 viewBox="0 0 371 199" style="enable-background:new 0 0 371 199;" xml:space="preserve">
<style type="text/css">
	.st0{fill:#EFB611;}
	.st1{fill:#FFFFFF;}
</style>
<g>
	<g>
		<path class="st0" d="M18.9,90.1c0.7-0.4,1.3-0.8,1.9-1.1c0.2-0.1,0.4-0.1,0.6,0c2.3,1.3,4.6,2.7,7,4c0.4,0.2,0.3,0.5,0.3,0.8v7.9
			l3.6,2.1l3.6-2.1V101c0-2.4,0-4.7,0-7.1c0-0.4,0.2-0.8,0.5-0.9c2.2-1.3,4.4-2.5,6.6-3.8c0.3-0.2,0.7-0.2,1,0
			c0.5,0.3,1,0.6,1.5,0.9c-0.2,0.2-0.3,0.3-0.4,0.5c-2,1.7-3.9,3.4-5.9,5.1c-0.4,0.3-0.6,0.7-0.5,1.2c0,1.9,0,3.9,0,5.8
			c0.1,0.5-0.2,1.1-0.7,1.3c-1.3,0.7-2.5,1.4-3.8,2.2c-0.3,0.2-0.5,0.3-0.4,0.7c0.1,0.2,0.1,0.3,0.2,0.4c0,0,0.1,0.1,0.1,0.1
			c0.5,0.3,1,0.8,1.6,0.8s1-0.5,1.5-0.7c1.7-0.9,3.3-1.9,5-2.8c0.5-0.2,0.7-0.7,0.7-1.2c0-2.2,0-4.5,0-6.7c0-0.4,0.1-0.8,0.5-1
			c0.7-0.6,1.4-1.2,2.2-1.9c0.1,0.2,0.1,0.3,0.1,0.5c0,3.7,0,7.3,0,11c0,0.4-0.2,0.7-0.5,0.8c-1.9,1.1-3.9,2.2-5.8,3.3
			c-0.3,0.1-0.5,0.3-0.8,0.5l5.3,3.1l-11.5,6.7l-11.5-6.7l5.3-3.1c-0.2-0.2-0.4-0.3-0.6-0.4c-2-1.2-4-2.3-6-3.5
			c-0.3-0.1-0.5-0.5-0.5-0.8c0-3.7,0-7.3,0-11c0-0.1,0-0.2,0-0.5c0.2,0.1,0.4,0.2,0.5,0.3c0.6,0.5,1.2,1,1.8,1.5
			c0.3,0.2,0.5,0.6,0.5,1c0,2.2,0,4.4,0,6.6c-0.1,0.5,0.3,1.1,0.8,1.3c2,1.1,3.9,2.2,5.8,3.3c0.4,0.3,0.8,0.3,1.2,0
			c0.3-0.2,0.7-0.4,1-0.6c0.5-0.3,0.5-0.8,0-1.1c-1.3-0.8-2.6-1.6-4-2.3c-0.4-0.2-0.7-0.6-0.6-1.1c0-2,0-3.9,0-5.9
			c0-0.5-0.2-1-0.6-1.3c-2-1.7-3.9-3.4-5.9-5C19.3,90.4,19.2,90.3,18.9,90.1z M38.2,112.9l-5.9-3.4l-5.9,3.4
			c0.1,0.1,0.1,0.2,0.2,0.2c1.8,1,3.6,2.1,5.3,3.1c0.3,0.2,0.6,0.2,0.8,0c1.7-1,3.4-2,5.1-3C37.9,113.1,38,113,38.2,112.9
			L38.2,112.9z"/>
		<path class="st0" d="M20.9,109.8l-2.8,1.6l-4.5-2.6V86.9l1.2-0.7c1.9-1.1,3.8-2.2,5.7-3.3c0.3-0.3,0.8-0.3,1.2,0
			c3.3,1.9,6.6,3.8,9.8,5.7l0.8,0.5l4.7-2.7c2-1.2,4-2.3,6-3.5c0.3-0.3,0.8-0.3,1.2,0c2.1,1.2,4.2,2.4,6.3,3.7
			c0.3,0.1,0.5,0.5,0.5,0.8c0,7,0,14,0,20.9c0,0.1,0,0.2,0,0.4l-4.5,2.6l-2.7-1.6c0.7-0.5,1.4-0.9,2.2-1.4c0.7-0.4,1.5-0.9,2.2-1.3
			c0-0.2,0-0.5,0-0.7c0-5.7,0-11.4,0-17.2c0.1-0.5-0.2-0.9-0.7-1.1c-1.2-0.6-2.3-1.3-3.5-2c-0.3-0.3-0.8-0.3-1.2,0
			c-3.3,1.9-6.6,3.8-9.9,5.7c-0.2,0.1-0.5,0.3-0.7,0.4c-0.3-0.2-0.5-0.3-0.8-0.4c-3.3-1.9-6.6-3.8-9.8-5.7c-0.3-0.3-0.8-0.3-1.2,0
			c-1.3,0.8-2.7,1.6-4.1,2.4v18.6L20.9,109.8z"/>
		<path class="st0" d="M23.7,81.1l8.6-5l8.6,5c-0.1,0.1-0.3,0.2-0.4,0.3c-2.5,1.5-5.1,2.9-7.6,4.4c-0.3,0.2-0.5,0.3-0.9,0.1
			c-2.6-1.5-5.3-3.1-7.9-4.6C23.9,81.3,23.8,81.2,23.7,81.1z M35.3,81.2l-3-1.7c-1,0.6-2,1.1-3,1.7l3,1.8L35.3,81.2z"/>
	</g>
	<g>
		<path class="st1" d="M72.4,111.5v-5.1c0.8-0.1,1.6-0.2,2.3-0.2c4.5,0,9,0,13.5,0c1.3,0,2.5-0.1,3.8-0.3c1.8-0.3,2.3-1,2.2-2.5
			c0-1.5-0.6-2.1-2.5-2.4s-3.5-0.2-5.3-0.3c-2.4,0-4.7-0.1-7.1-0.4c-4.9-0.8-7.4-3.9-7.2-8.5c-0.1-2.8,1.7-5.4,4.3-6.5
			c1.5-0.7,3.2-1.1,4.8-1.2c6-0.1,12,0,18.2,0v5.3c-0.9,0.1-1.7,0.2-2.6,0.2c-4.6,0-9.2,0-13.9,0c-1.3,0-2.5,0.2-3.8,0.4
			c-1,0.2-1.7,1.1-1.6,2.2c-0.1,1,0.5,2,1.5,2.3c1,0.3,2.1,0.5,3.2,0.5c2.4,0.1,4.7-0.1,7.1,0.1c1.9,0.1,3.7,0.4,5.5,1
			c3.1,1,5.2,4,4.9,7.3c0.2,3.3-1.8,6.2-4.9,7.3c-1.1,0.5-2.2,0.8-3.4,0.8C85.3,111.6,79,111.5,72.4,111.5z"/>
		<path class="st1" d="M359.8,111.4l-1.4,0.2c-2.6,0.7-5.2-0.7-6.2-3.2c-0.9-1.9-2.5-3.6-3.5-5.4c-0.8-1.7-2.6-2.7-4.5-2.5
			c-4.7,0.2-9.5,0-14.2,0c-1,0-1.9-0.1-3.1-0.1v-5.2c1,0,2-0.1,2.9-0.1h18.6c1.1,0,2.2,0,3.2-0.2c1.9-0.3,2.7-1.1,2.7-2.6
			s-0.8-2.3-2.7-2.5c-1.1-0.1-2.2-0.2-3.2-0.2h-13c-1,0-1.9-0.1-3.1-0.1v-5c0.2-0.1,0.3-0.3,0.5-0.3c6,0,12,0,18,0
			c0.9,0,1.8,0.2,2.6,0.4c3.9,1,6.2,3.5,6.4,7.1c0.2,4.1-1.5,6.6-5.4,8.1l-2,0.7L359.8,111.4z"/>
		<path class="st1" d="M173.5,84.2h5.2c0.1,3.3,0,6.6,0.1,9.8c0.1,3.2,0,6.5,0,10.2c0.6-0.5,1.2-1,1.7-1.6
			c4.2-5.2,8.5-10.3,12.5-15.7c2-2.7,4.1-3.6,7.6-2.6c-0.7,0.9-1.2,1.8-1.9,2.6c-5.9,7.4-12,14.8-17.8,22.4
			c-1.5,1.9-3.1,2.8-5.5,2.5c-0.6-0.1-1.1-0.1-1.9-0.1L173.5,84.2z"/>
		<path class="st1" d="M283.6,106v5.1c-5.4,1.9-12.1-0.9-14.9-6.3c-3.3-6.2-1.5-14.5,3.9-18.3c5.4-3.8,13.8-3.2,18.2,1.4l-3.9,3.7
			c-3.8-2.4-7.8-3.1-11.6,0c-2.6,2.4-3.5,6.2-2,9.5C275.2,105.7,279.1,106.5,283.6,106z"/>
		<path class="st1" d="M231,89.6h-10.9v-5.4h16.3v27.3c-0.9,0.1-1.8,0.2-2.7,0.2c-0.8,0-1.6-0.1-2.7-0.1V89.6z"/>
		<path class="st1" d="M259.4,111.5h-4.9c-0.7-2.2-0.8-24.1-0.2-27.4c0.6-0.1,1.2-0.2,1.9-0.2c1,0,1.9,0,3.1,0V111.5z"/>
		<path class="st1" d="M136.1,84.2v5.2h-27.3c-0.1-0.7-0.2-1.2-0.3-1.8c0-1.1,0-2.1,0-3.1C110.9,83.8,131.4,83.7,136.1,84.2z"/>
		<path class="st1" d="M140.2,84.2h27.1v5.4h-27.1V84.2z"/>
		<path class="st1" d="M327.7,84.2v5.3h-27.3v-5.3H327.7z"/>
		<path class="st1" d="M294.6,111.5h-5.3v-10.7l-5.3-0.4v-5.2c3.4-0.3,6.9-0.1,10.3-0.1C295,97.3,295.2,107.2,294.6,111.5z"/>
		<path class="st1" d="M130.7,95.2v4.9c-2.3,0.7-18.9,0.8-21.9,0.1v-4.9L130.7,95.2z"/>
		<path class="st1" d="M161.9,95.2v5.2h-21.9v-5.2H161.9z"/>
		<path class="st1" d="M130.7,106.5v4.9h-21.8v-4.8C110.9,106.1,127,105.9,130.7,106.5z"/>
		<path class="st1" d="M140,111.4v-5h21.9v4.8C160,111.8,144.9,112,140,111.4z"/>
		<path class="st1" d="M322.1,95.2v4.8c-2.2,0.7-18.3,0.8-21.8,0.2v-5H322.1z"/>
		<path class="st1" d="M300.3,111.5v-4.8c2.1-0.6,17.9-0.8,21.8-0.2v5H300.3z"/>
		<path class="st1" d="M189.9,104.8c0.9-1.2,1.7-2.2,2.7-3.5l7.8,9.7c-3.5,1.2-4.9,0.9-6.9-1.6C192.4,108,191.3,106.5,189.9,104.8z"
			/>
		<path class="st1" d="M247.4,84.2v5.2h-5.3v-5.2H247.4z"/>
		<path class="st1" d="M332.5,106.3h5.2v5.1h-5.2V106.3z"/>
	</g>
</g>
</svg>
